# xmcd CD database file
#
# Track frame offsets:
#	150
#	13485
#	24361
#	37432
#	50540
#	62988
#	76972
#	90083
#	99625
#	113511
#	126288
#	138073
#	150121
#	162642
#	174192
#	187409
#
# Disc length: 2667 seconds
#
# Revision: 0
# Processed by: cddbd v1.5.2PL0 Copyright (c) Steve Scherf et al.
# Submitted via: CDex 1.70beta2
#
DISCID=ce0a6910
DTITLE=Tony Bennett - Vintage Vinyl
DYEAR=2006
DGENRE=Jazz
TTITLE0=The Boulevard Of Broken Dreams
TTITLE1=One Lie Leeds To Another
TTITLE2=Roses Of Yesterday
TTITLE3=Sleepless
TTITLE4=Once There Lived A Fool
TTITLE5=Have A Good Time
TTITLE6=Congratulations To Someone
TTITLE7=Stay Where You Are
TTITLE8=Why Does It Have To Be Me
TTITLE9=Rags To Riches
TTITLE10=I'll Go
TTITLE11=Cold, Cold Heart
TTITLE12=Just Say I Love Her
TTITLE13=The Valentino Tango
TTITLE14=Silly Dreamer
TTITLE15=Please, My Love
EXTD=YEAR: 2006
EXTT0=
EXTT1=
EXTT2=
EXTT3=
EXTT4=
EXTT5=
EXTT6=
EXTT7=
EXTT8=
EXTT9=
EXTT10=
EXTT11=
EXTT12=
EXTT13=
EXTT14=
EXTT15=
PLAYORDER=
